# xmcd
#
# Track frame offsets:
#	183
#	16198
#	30418
#	41725
#	57853
#	74705
#	84683
#	101500
#	117973
#	137078
#	145313
#	156568
#	173240
#	186258
#	198180
#	211958
#	222768
#	235328
#	247075
#	256853
#	266238
#	278528
#
# Disc length: 3893 seconds
#
# Revision: 1
# Processed by: cddbd v1.5.2PL0 Copyright (c) Steve Scherf et al.
# Submitted via: EZCDAudioConverter 9.0.6.1
#
DISCID=4b0f3316
DTITLE=Memphis Slim - 4:00 Blues
DYEAR=1988
DGENRE=R&B
TTITLE0=4:00 Blues
TTITLE1=Trouble In Mind
TTITLE2=Worried Life Blues
TTITLE3=Cow Cow Blues
TTITLE4=Lonesome In My Bedroom
TTITLE5=Diggin' My Potatoes
TTITLE6=In The Evening When The Sun Goes Down
TTITLE7=Blue and Disgusted
TTITLE8=Miss Ida Bea
TTITLE9=I'll Take Her To Chicago
TTITLE10=Lonesome
TTITLE11=Cold Blooded Woman
TTITLE12=One Man's Mind
TTITLE13=Let The Good Times Roll Creole
TTITLE14=What Is The Mare Rack?
TTITLE15=Pigalle Love
TTITLE16=Four Walls
TTITLE17=It's Been Too Long
TTITLE18=Big Bertha
TTITLE19=I'm Lost Without You
TTITLE20=I'll Just Keep On Singin' The Blues
TTITLE21=True Love
EXTD=
EXTT0=
EXTT1=
EXTT2=
EXTT3=
EXTT4=
EXTT5=
EXTT6=
EXTT7=
EXTT8=
EXTT9=
EXTT10=
EXTT11=
EXTT12=
EXTT13=
EXTT14=
EXTT15=
EXTT16=
EXTT17=
EXTT18=
EXTT19=
EXTT20=
EXTT21=
PLAYORDER=
